{
  "source": "C:\\Users\\Peter\\Desktop\\stuff\\MIUN\\quantitative_research\\video_compression\\videos\\BVI-HD\\BVI-HD_CDVL_videos\\ORIG\\PlasmaAveragePan_1920x1080_60fps.mp4",
  "output": "C:\\Users\\Peter\\Desktop\\stuff\\MIUN\\quantitative_research\\video_compression\\compressed_videos\\BVI-HD\\vp9\\3\\PlasmaAveragePan_1920x1080_60fps_vp9.webm",
  "codec": "vp9",
  "ok": "Input #0, mov,mp4,m4a,3gp,3g2,mj2, from 'C:\\Users\\Peter\\Desktop\\stuff\\MIUN\\quantitative_research\\video_compression\\videos\\BVI-HD\\BVI-HD_CDVL_videos\\ORIG\\PlasmaAveragePan_1920x1080_60fps.mp4':\n  Metadata:\n    major_brand     : isom\n    minor_version   : 512\n    compatible_brands: isomiso2avc1mp41\n    encoder         : Lavf54.28.101\n  Duration: 00:00:05.00, start: 0.000000, bitrate: 73730 kb/s\n  Stream #0:0[0x1](und): Video: h264 (High 4:4:4 Predictive) (avc1 / 0x31637661), yuv420p(progressive), 1920x1080, 73727 kb/s, 60 fps, 60 tbr, 60 tbn (default)\n    Metadata:\n      handler_name    : VideoHandler\n      vendor_id       : [0][0][0][0]\n[out#0/webm @ 000001b4b3150840] Codec AVOption b:a (set bitrate (in bits/s)) has not been used for any stream. The most likely reason is either wrong type (e.g. a video option with no video streams) or that it is a private option of some decoder which was not actually used for any stream.\nStream mapping:\n  Stream #0:0 -> #0:0 (h264 (native) -> vp9 (libvpx-vp9))\nPress [q] to stop, [?] for help\n[libvpx-vp9 @ 000001b4b3962240] v1.15.2-100-g40561f514\nOutput #0, webm, to 'C:\\Users\\Peter\\Desktop\\stuff\\MIUN\\quantitative_research\\video_compression\\compressed_videos\\BVI-HD\\vp9\\3\\PlasmaAveragePan_1920x1080_60fps_vp9.webm':\n  Metadata:\n    major_brand     : isom\n    minor_version   : 512\n    compatible_brands: isomiso2avc1mp41\n    encoder         : Lavf62.3.100\n  Stream #0:0(und): Video: vp9, yuv420p(tv, progressive), 1920x1080, q=2-31, 3000 kb/s, 60 fps, 1k tbn (default)\n    Metadata:\n      encoder         : Lavc62.11.100 libvpx-vp9\n      handler_name    : VideoHandler\n      vendor_id       : [0][0][0][0]\n    Side data:\n      cpb: bitrate max/min/avg: 0/0/0 buffer size: 3000000 vbv_delay: N/A\nframe=    4 fps=0.0 q=58.0 size=       1KiB time=00:00:00.06 bitrate=  76.0kbits/s speed=0.129x elapsed=0:00:00.51    \nframe=   13 fps= 13 q=39.0 size=       1KiB time=00:00:00.21 bitrate=  23.4kbits/s speed=0.212x elapsed=0:00:01.02    \nframe=   21 fps= 14 q=44.0 size=       1KiB time=00:00:00.35 bitrate=  14.5kbits/s speed=0.227x elapsed=0:00:01.54    \nframe=   29 fps= 14 q=44.0 size=       1KiB time=00:00:00.48 bitrate=  10.5kbits/s speed=0.234x elapsed=0:00:02.06    \nframe=   37 fps= 14 q=25.0 size=       1KiB time=00:00:00.61 bitrate=   8.2kbits/s speed=0.24x elapsed=0:00:02.56    \nframe=   44 fps= 14 q=47.0 size=       1KiB time=00:00:00.73 bitrate=   6.9kbits/s speed=0.236x elapsed=0:00:03.10    \nframe=   51 fps= 14 q=47.0 size=       1KiB time=00:00:00.85 bitrate=   6.0kbits/s speed=0.235x elapsed=0:00:03.61    \nframe=   56 fps= 14 q=46.0 size=       1KiB time=00:00:00.93 bitrate=   5.4kbits/s speed=0.226x elapsed=0:00:04.13    \nframe=   60 fps= 13 q=46.0 size=       1KiB time=00:00:01.00 bitrate=   5.1kbits/s speed=0.215x elapsed=0:00:04.65    \nframe=   67 fps= 13 q=47.0 size=       1KiB time=00:00:01.11 bitrate=   4.5kbits/s speed=0.214x elapsed=0:00:05.23    \nframe=   73 fps= 13 q=27.0 size=       1KiB time=00:00:01.21 bitrate=   4.2kbits/s speed=0.211x elapsed=0:00:05.77    \nframe=   80 fps= 13 q=49.0 size=       1KiB time=00:00:01.33 bitrate=   3.8kbits/s speed=0.212x elapsed=0:00:06.30    \nframe=   87 fps= 13 q=48.0 size=       1KiB time=00:00:01.45 bitrate=   3.5kbits/s speed=0.212x elapsed=0:00:06.84    \nframe=   95 fps= 13 q=46.0 size=       1KiB time=00:00:01.56 bitrate=   3.2kbits/s speed=0.213x elapsed=0:00:07.37    \nframe=  101 fps= 13 q=45.0 size=       1KiB time=00:00:01.68 bitrate=   3.0kbits/s speed=0.213x elapsed=0:00:07.91    \nframe=  108 fps= 13 q=46.0 size=       1KiB time=00:00:01.80 bitrate=   2.8kbits/s speed=0.213x elapsed=0:00:08.43    \nframe=  113 fps= 13 q=48.0 size=       1KiB time=00:00:01.88 bitrate=   2.7kbits/s speed=0.21x elapsed=0:00:08.96    \nframe=  119 fps= 13 q=27.0 size=       1KiB time=00:00:01.98 bitrate=   2.6kbits/s speed=0.209x elapsed=0:00:09.47    \nframe=  125 fps= 13 q=49.0 size=       1KiB time=00:00:02.08 bitrate=   2.4kbits/s speed=0.208x elapsed=0:00:09.99    \nframe=  131 fps= 12 q=48.0 size=     512KiB time=00:00:02.18 bitrate=1921.1kbits/s speed=0.207x elapsed=0:00:10.53    \nframe=  137 fps= 12 q=48.0 size=     512KiB time=00:00:02.28 bitrate=1836.9kbits/s speed=0.206x elapsed=0:00:11.06    \nframe=  143 fps= 12 q=47.0 size=     512KiB time=00:00:02.38 bitrate=1759.8kbits/s speed=0.206x elapsed=0:00:11.58    \nframe=  147 fps= 12 q=48.0 size=     512KiB time=00:00:02.45 bitrate=1712.0kbits/s speed=0.202x elapsed=0:00:12.13    \nframe=  151 fps= 12 q=48.0 size=     512KiB time=00:00:02.50 bitrate=1677.7kbits/s speed=0.197x elapsed=0:00:12.69    \nframe=  154 fps= 12 q=48.0 size=     512KiB time=00:00:02.56 bitrate=1634.1kbits/s speed=0.193x elapsed=0:00:13.28    \nframe=  158 fps= 11 q=49.0 size=     512KiB time=00:00:02.63 bitrate=1592.8kbits/s speed=0.189x elapsed=0:00:13.92    \nframe=  162 fps= 11 q=50.0 size=     512KiB time=00:00:02.70 bitrate=1553.4kbits/s speed=0.186x elapsed=0:00:14.47    \nframe=  167 fps= 11 q=49.0 size=     512KiB time=00:00:02.76 bitrate=1516.0kbits/s speed=0.184x elapsed=0:00:15.06    \nframe=  171 fps= 11 q=49.0 size=     512KiB time=00:00:02.85 bitrate=1471.7kbits/s speed=0.182x elapsed=0:00:15.63    \nframe=  176 fps= 11 q=28.0 size=     512KiB time=00:00:02.93 bitrate=1429.9kbits/s speed=0.181x elapsed=0:00:16.16    \nframe=  183 fps= 11 q=46.0 size=     512KiB time=00:00:03.03 bitrate=1382.7kbits/s speed=0.181x elapsed=0:00:16.74    \nframe=  188 fps= 11 q=27.0 size=     512KiB time=00:00:03.13 bitrate=1338.6kbits/s speed=0.181x elapsed=0:00:17.32    \nframe=  195 fps= 11 q=46.0 size=     512KiB time=00:00:03.25 bitrate=1290.6kbits/s speed=0.182x elapsed=0:00:17.85    \nframe=  201 fps= 11 q=46.0 size=     512KiB time=00:00:03.35 bitrate=1252.0kbits/s speed=0.182x elapsed=0:00:18.38    \nframe=  208 fps= 11 q=47.0 size=     512KiB time=00:00:03.46 bitrate=1209.9kbits/s speed=0.183x elapsed=0:00:18.90    \nframe=  214 fps= 11 q=47.0 size=     512KiB time=00:00:03.56 bitrate=1176.0kbits/s speed=0.184x elapsed=0:00:19.43    \nframe=  219 fps= 11 q=46.0 size=     512KiB time=00:00:03.65 bitrate=1149.1kbits/s speed=0.183x elapsed=0:00:19.94    \nframe=  225 fps= 11 q=46.0 size=     512KiB time=00:00:03.75 bitrate=1118.5kbits/s speed=0.183x elapsed=0:00:20.49    \nframe=  231 fps= 11 q=46.0 size=     512KiB time=00:00:03.85 bitrate=1089.4kbits/s speed=0.183x elapsed=0:00:21.04    \nframe=  238 fps= 11 q=47.0 size=     512KiB time=00:00:03.96 bitrate=1057.4kbits/s speed=0.184x elapsed=0:00:21.55    \nframe=  244 fps= 11 q=50.0 size=     512KiB time=00:00:04.06 bitrate=1031.4kbits/s speed=0.184x elapsed=0:00:22.07    \nframe=  251 fps= 11 q=50.0 size=     512KiB time=00:00:04.18 bitrate=1002.6kbits/s speed=0.185x elapsed=0:00:22.59    \nframe=  256 fps= 11 q=49.0 size=     512KiB time=00:00:04.26 bitrate= 983.0kbits/s speed=0.185x elapsed=0:00:23.11    \nframe=  263 fps= 11 q=47.0 size=    1024KiB time=00:00:04.38 bitrate=1913.8kbits/s speed=0.185x elapsed=0:00:23.63    \nframe=  270 fps= 11 q=46.0 size=    1024KiB time=00:00:04.50 bitrate=1864.1kbits/s speed=0.186x elapsed=0:00:24.14    \nframe=  276 fps= 11 q=46.0 size=    1024KiB time=00:00:04.60 bitrate=1823.6kbits/s speed=0.186x elapsed=0:00:24.66    \nframe=  276 fps= 11 q=46.0 size=    1024KiB time=00:00:04.60 bitrate=1823.6kbits/s speed=0.183x elapsed=0:00:25.18    \nframe=  276 fps= 11 q=46.0 size=    1024KiB time=00:00:04.60 bitrate=1823.6kbits/s speed=0.179x elapsed=0:00:25.70    \nframe=  276 fps= 11 q=46.0 size=    1024KiB time=00:00:04.60 bitrate=1823.6kbits/s speed=0.175x elapsed=0:00:26.21    \n[out#0/webm @ 000001b4b3150840] video:1215KiB audio:0KiB subtitle:0KiB other streams:0KiB global headers:0KiB muxing overhead: 0.226968%\nframe=  300 fps= 11 q=47.0 Lsize=    1218KiB time=00:00:05.00 bitrate=1996.0kbits/s speed=0.188x elapsed=0:00:26.56    \n",
  "seconds": 26.796764135360718,
  "probe_out": {}
}